<?xml version="1.0" encoding="UTF-8"?>
<svg version="1.1" xmlns="http://www.w3.org/2000/svg" width="225" height="225">
<path d="M0 0 C74.25 0 148.5 0 225 0 C225 74.25 225 148.5 225 225 C150.75 225 76.5 225 0 225 C0 150.75 0 76.5 0 0 Z " fill="#636363" transform="translate(0,0)"/>
<path d="M0 0 C1.25695679 0.00539291 1.25695679 0.00539291 2.53930664 0.01089478 C3.41727402 0.01074875 4.29524139 0.01060272 5.19981384 0.01045227 C8.11630685 0.01115172 11.03273683 0.01894561 13.94921875 0.02676392 C15.96561142 0.02862798 17.98200454 0.03005194 19.99839783 0.03105164 C25.31671388 0.03487772 30.6350028 0.04470878 35.95330811 0.05575562 C41.37576938 0.06596779 46.79823502 0.07054884 52.22070312 0.07559204 C62.86850344 0.08633097 73.51627648 0.1039285 84.1640625 0.12442017 C84.1640625 5.73442017 84.1640625 11.34442017 84.1640625 17.12442017 C43.9040625 17.12442017 3.6440625 17.12442017 -37.8359375 17.12442017 C-37.8359375 16.79442017 -37.8359375 16.46442017 -37.8359375 16.12442017 C-11.1059375 15.62942017 -11.1059375 15.62942017 16.1640625 15.12442017 C-2.3159375 15.12442017 -20.7959375 15.12442017 -39.8359375 15.12442017 C-40.1659375 14.13442017 -40.4959375 13.14442017 -40.8359375 12.12442017 C-18.0659375 11.62942017 -18.0659375 11.62942017 5.1640625 11.12442017 C-10.3459375 11.12442017 -25.8559375 11.12442017 -41.8359375 11.12442017 C-42.1659375 10.13442017 -42.4959375 9.14442017 -42.8359375 8.12442017 C-43.81443945 7.10337465 -44.81574177 6.10380807 -45.8359375 5.12442017 C-46.4959375 4.13442017 -47.1559375 3.14442017 -47.8359375 2.12442017 C-46.5991626 2.09936401 -45.3623877 2.07430786 -44.08813477 2.04849243 C-39.51657037 1.95459764 -34.94516432 1.85433388 -30.3737793 1.75210571 C-28.39204604 1.70868873 -26.41027372 1.6670188 -24.4284668 1.62710571 C-21.5863058 1.56956634 -18.74434267 1.50582572 -15.90234375 1.44082642 C-14.56484825 1.41575768 -14.56484825 1.41575768 -13.20033264 1.3901825 C-8.38431477 1.27315102 -4.78021032 0.0086617 0 0 Z " fill="#6D6D6D" transform="translate(140.8359375,-0.124420166015625)"/>
</svg>
