<svg width="2071" height="275" viewBox="0 0 2071 275" fill="none" xmlns="http://www.w3.org/2000/svg">
<path d="M187.998 148.237C159.077 96.9943 -27.4992 -11.4985 29.5008 26.5015C86.5008 64.5015 159.077 96.9943 187.998 148.237Z" fill="#D9D9D9"/>
<path d="M2070 256.5C2050.5 256.5 1334.11 109.191 1266.5 185.737C1213.5 245.737 1183.5 239.238 1026.5 185.737C860.746 129.254 615.881 227.737 561.498 245.737C387.572 303.304 400.998 94.7372 312.498 185.737C202.71 298.625 224.149 212.291 187.998 148.237M187.998 148.237C159.077 96.9943 -27.4992 -11.4985 29.5008 26.5015C86.5008 64.5015 159.077 96.9943 187.998 148.237Z" stroke="#6900EE" stroke-width="37"/>
</svg>
