<svg width="2097" height="298" viewBox="0 0 2097 298" fill="none" xmlns="http://www.w3.org/2000/svg">
<path d="M212.998 166.237C184.077 114.994 -23.5 -6.49998 33.5 31.5C90.5 69.5 184.077 114.994 212.998 166.237Z" fill="#D9D9D9"/>
<path d="M2095 274.5C2075.5 274.5 1359.11 127.191 1291.5 203.737C1238.5 263.737 1208.5 257.238 1051.5 203.737C885.746 147.254 640.881 245.737 586.498 263.737C412.572 321.304 425.998 112.737 337.498 203.737C227.71 316.625 249.149 230.291 212.998 166.237M212.998 166.237C184.077 114.994 -23.5 -6.49998 33.5 31.5C90.5 69.5 184.077 114.994 212.998 166.237Z" stroke="#6900EE" stroke-width="47"/>
</svg>
