<svg width="1614" height="275" viewBox="0 0 1614 275" fill="none" xmlns="http://www.w3.org/2000/svg">
<path d="M187.998 148.236C159.077 96.9935 -27.4989 -11.4994 29.5011 26.5006C86.5011 64.5006 159.077 96.9935 187.998 148.236Z" fill="#D9D9D9"/>
<path d="M1609.5 219.501C1576.5 226.001 1334.11 109.19 1266.5 185.736C1213.5 245.736 1183.5 239.237 1026.5 185.736C860.747 129.253 615.881 227.736 561.498 245.736C387.573 303.303 400.998 94.7364 312.498 185.736C202.711 298.625 224.149 212.29 187.998 148.236M187.998 148.236C159.077 96.9935 -27.4989 -11.4994 29.5011 26.5006C86.5011 64.5006 159.077 96.9935 187.998 148.236Z" stroke="#6900EE" stroke-width="37"/>
</svg>
