<svg width="156" height="156" viewBox="0 0 156 156" fill="none" xmlns="http://www.w3.org/2000/svg">
<circle cx="78" cy="78" r="78" fill="#6900EE"/>
<g clip-path="url(#clip0_129_42)">
<path d="M115.328 79.7009C113.283 79.0374 111.099 78.9227 108.996 79.3682C106.892 79.8137 104.942 80.8038 103.341 82.2395C95.7072 79.5149 88.5505 74.8675 83.9936 69.6325C79.2633 64.198 77.5315 58.6563 78.8264 53.156C81.4644 52.5799 83.8389 51.1502 85.5824 49.0884C87.326 47.0266 88.3413 44.4477 88.4713 41.7506C88.6013 39.0536 87.8387 36.3889 86.3015 34.169C84.7643 31.9491 82.5383 30.2977 79.968 29.4705C77.3976 28.6433 74.6263 28.6864 72.0829 29.593C69.5395 30.4997 67.3659 32.2194 65.8984 34.486C64.431 36.7526 63.7516 39.4397 63.9653 42.1314C64.179 44.8231 65.274 47.3693 67.0808 49.376L54.6762 87.5533C52.0321 88.1154 49.6474 89.5341 47.8919 91.5896C46.1364 93.645 45.1081 96.2223 44.9666 98.9217C44.8252 101.621 45.5784 104.292 47.1094 106.52C48.6405 108.747 50.8639 110.407 53.4347 111.243C56.0055 112.078 58.7801 112.042 61.3281 111.139C63.8762 110.237 66.0553 108.519 67.5276 106.252C68.9998 103.985 69.6828 101.296 69.4707 98.601C69.2587 95.9062 68.1633 93.3567 66.3546 91.3479L71.9551 74.1113C78.1068 82.9693 88.4254 90.0299 99.5256 93.915C99.9706 96.0253 100.963 97.9811 102.404 99.5857C103.845 101.19 105.683 102.387 107.734 103.056C109.784 103.724 111.974 103.841 114.084 103.395C116.194 102.948 118.149 101.953 119.753 100.511C121.356 99.0689 122.551 97.2298 123.218 95.1789C123.885 93.1279 124 90.9376 123.552 88.8281C123.103 86.7186 122.107 84.7644 120.664 83.1622C119.22 81.5599 117.38 80.3661 115.328 79.7009ZM78.1013 35.3267C79.2562 35.702 80.2738 36.4113 81.0256 37.3649C81.7774 38.3185 82.2295 39.4737 82.3248 40.6842C82.4201 41.8948 82.1542 43.1064 81.5609 44.1659C80.9675 45.2254 80.0733 46.0852 78.9914 46.6365C77.9094 47.1877 76.6883 47.4058 75.4824 47.2631C74.2765 47.1204 73.14 46.6232 72.2166 45.8346C71.2932 45.046 70.6244 44.0012 70.2948 42.8325C69.9652 41.6638 69.9896 40.4236 70.3648 39.2687C70.868 37.72 71.9658 36.4347 73.4167 35.6954C74.8675 34.9562 76.5526 34.8236 78.1013 35.3267ZM55.334 105.397C54.1792 105.022 53.1615 104.313 52.4097 103.359C51.6579 102.405 51.2058 101.25 51.1105 100.04C51.0153 98.829 51.2811 97.6174 51.8745 96.5579C52.4678 95.4984 53.362 94.6387 54.444 94.0874C55.5259 93.5361 56.7471 93.318 57.953 93.4608C59.1589 93.6035 60.2954 94.1006 61.2187 94.8892C62.1421 95.6779 62.8109 96.7226 63.1405 97.8913C63.4701 99.0601 63.4458 100.3 63.0705 101.455C62.5673 103.004 61.4695 104.289 60.0187 105.028C58.5678 105.768 56.8827 105.9 55.334 105.397ZM109.637 97.2185C108.482 96.8432 107.464 96.1339 106.712 95.1803C105.961 94.2267 105.508 93.0716 105.413 91.861C105.318 90.6504 105.584 89.4388 106.177 88.3793C106.77 87.3198 107.665 86.4601 108.747 85.9088C109.829 85.3575 111.05 85.1394 112.256 85.2821C113.462 85.4249 114.598 85.922 115.521 86.7106C116.445 87.4992 117.114 88.544 117.443 89.7127C117.773 90.8814 117.748 92.1217 117.373 93.2765C116.87 94.8252 115.772 96.1105 114.321 96.8498C112.87 97.589 111.185 97.7217 109.637 97.2185Z" fill="white"/>
</g>
<defs>
<clipPath id="clip0_129_42">
<rect width="98.2351" height="98.2351" fill="white" transform="translate(46.3564 16) rotate(18)"/>
</clipPath>
</defs>
</svg>
