<?xml version="1.0" encoding="UTF-8"?>
<svg version="1.1" xmlns="http://www.w3.org/2000/svg" width="60" height="55">
<path d="M0 0 C2 2 2 2 2 5 C1.01 5.33 0.02 5.66 -1 6 C-3 4.625 -3 4.625 -5 3 C-10.73728167 1.08757278 -16.8828949 1.2571561 -22.5625 3.25 C-25.0416157 5.02987794 -26.01526648 6.14427279 -27 9 C-25.4221875 9.556875 -25.4221875 9.556875 -23.8125 10.125 C-19.54467734 11.96890715 -17.57891569 14.13162647 -15 18 C-14 21.1875 -14 21.1875 -14 24 C-15.0625 25.9375 -15.0625 25.9375 -17 27 C-19.8125 27.125 -19.8125 27.125 -23 26 C-25.29531153 23.87655962 -27.14499707 21.50970985 -29 19 C-29.55300781 18.26394531 -30.10601563 17.52789063 -30.67578125 16.76953125 C-31.11277344 16.18558594 -31.54976562 15.60164063 -32 15 C-39.38282545 23.76859852 -41.38563469 31.66601935 -42 43 C-41.4225 42.175 -40.845 41.35 -40.25 40.5 C-39.5075 39.675 -38.765 38.85 -38 38 C-36.68 38 -35.36 38 -34 38 C-34.58172725 41.9520518 -36.55157741 44.22095053 -39.0625 47.25 C-39.79597656 48.14203125 -40.52945313 49.0340625 -41.28515625 49.953125 C-41.85105469 50.62859375 -42.41695312 51.3040625 -43 52 C-46.9520518 51.41827275 -49.22095053 49.44842259 -52.25 46.9375 C-53.58804688 45.83728516 -53.58804688 45.83728516 -54.953125 44.71484375 C-55.62859375 44.14894531 -56.3040625 43.58304688 -57 43 C-56.67 41.68 -56.34 40.36 -56 39 C-53.04049858 40.37405423 -50.58504604 42.01776932 -48 44 C-47.82984375 42.94941406 -47.6596875 41.89882813 -47.484375 40.81640625 C-45.7243707 30.4344835 -43.51751152 21.55423387 -37 13 C-36.319375 12.525625 -35.63875 12.05125 -34.9375 11.5625 C-32.67665781 9.99289223 -32.67665781 9.99289223 -31.5625 6.5625 C-29.45833748 1.76500945 -27.02742644 -0.03455884 -22.375 -2.25 C-14.37050385 -4.02877692 -7.40018944 -3.49827137 0 0 Z M-26 14 C-24.69386058 17.91841827 -23.16870152 20.32640809 -20 23 C-19.34 23 -18.68 23 -18 23 C-19.17452852 18.59373948 -19.17452852 18.59373948 -22 15.125 C-23.90807602 13.83657959 -23.90807602 13.83657959 -26 14 Z " fill="#000000" transform="translate(57,3)"/>
</svg>
